<svg viewBox="0 0 160 160" xmlns="http://www.w3.org/2000/svg" fill-rule="evenodd" clip-rule="evenodd" stroke-linejoin="round" stroke-miterlimit="2"><path d="M37.409 0H0v126.652L32 160V48.868L117.072 160H160L37.409 0zM160 40.139v71.431l-32-40V.139l32 40z" fill="#4ae61a"/><path d="M152 160h-49.2c-4.4 0-8-3.6-8-8v-44c0-4.4 3.6-8 8-8H152c4.4 0 8 3.6 8 8v44c0 4.4-3.6 8-8 8z" fill="#3a4e27" fill-rule="nonzero"/><path d="M116.7 147.7h-4.4v-28c-1.1 1-2.4 2-4.2 3-1.7 1-3.3 1.8-4.6 2.3v-4.2c2.5-1.2 4.6-2.6 6.4-4.2 1.8-1.6 3.1-3.2 3.9-4.8h2.8v35.9h.1zm11.2-17.7c0-4.2.4-7.6 1.3-10.2.9-2.6 2.2-4.6 3.9-6 1.7-1.4 3.9-2.1 6.5-2.1 1.9 0 3.6.4 5.1 1.2 1.5.8 2.6 1.9 3.6 3.3.9 1.5 1.7 3.2 2.2 5.3.5 2.1.8 4.9.8 8.5 0 4.2-.4 7.6-1.3 10.2-.9 2.6-2.2 4.6-3.9 6-1.7 1.4-3.9 2.1-6.5 2.1-3.5 0-6.2-1.2-8.1-3.7-2.4-3-3.6-7.9-3.6-14.6zm4.6 0c0 5.9.7 9.8 2.1 11.7 1.4 1.9 3.1 2.9 5.1 2.9 2 0 3.7-1 5.1-2.9 1.4-2 2.1-5.9 2.1-11.7 0-5.9-.7-9.8-2.1-11.7-1.4-1.9-3.1-2.9-5.1-2.9-2 0-3.6.9-4.8 2.6-1.7 2.1-2.4 6.1-2.4 12z" fill="#fff" fill-rule="nonzero"/></svg>